<svg width="97" height="23" viewBox="0 0 97 23" fill="none" xmlns="http://www.w3.org/2000/svg">
<path d="M0.642046 22V0.181818H8.26989C9.78977 0.181818 11.0433 0.444602 12.0305 0.970171C13.0178 1.48864 13.7528 2.18821 14.2358 3.06889C14.7188 3.94247 14.9602 4.91193 14.9602 5.97727C14.9602 6.91477 14.7933 7.68892 14.4595 8.29972C14.1328 8.91051 13.6996 9.39347 13.1598 9.74858C12.6271 10.1037 12.0483 10.3665 11.4233 10.5369V10.75C12.0909 10.7926 12.7621 11.027 13.4368 11.4531C14.1115 11.8793 14.6761 12.4901 15.1307 13.2855C15.5852 14.081 15.8125 15.054 15.8125 16.2045C15.8125 17.2983 15.5639 18.282 15.0668 19.1555C14.5696 20.0291 13.7848 20.7216 12.7124 21.233C11.6399 21.7443 10.2443 22 8.52557 22H0.642046ZM3.28409 19.6562H8.52557C10.2514 19.6562 11.4766 19.3224 12.201 18.6548C12.9325 17.9801 13.2983 17.1634 13.2983 16.2045C13.2983 15.4659 13.1101 14.7841 12.7337 14.1591C12.3572 13.527 11.821 13.0227 11.125 12.6463C10.429 12.2628 9.60511 12.071 8.65341 12.071H3.28409V19.6562ZM3.28409 9.76989H8.18466C8.98011 9.76989 9.69744 9.61364 10.3366 9.30114C10.983 8.98864 11.4943 8.5483 11.8707 7.98011C12.2543 7.41193 12.446 6.74432 12.446 5.97727C12.446 5.01847 12.1122 4.20526 11.4446 3.53764C10.777 2.86293 9.71875 2.52557 8.26989 2.52557H3.28409V9.76989ZM26.4606 22.3409C24.9833 22.3409 23.6871 21.9893 22.5721 21.2862C21.4641 20.5831 20.5977 19.5994 19.9727 18.3352C19.3548 17.071 19.0458 15.5937 19.0458 13.9034C19.0458 12.1989 19.3548 10.7109 19.9727 9.43963C20.5977 8.16832 21.4641 7.18111 22.5721 6.47798C23.6871 5.77486 24.9833 5.4233 26.4606 5.4233C27.9379 5.4233 29.2305 5.77486 30.3384 6.47798C31.4535 7.18111 32.32 8.16832 32.9379 9.43963C33.5629 10.7109 33.8754 12.1989 33.8754 13.9034C33.8754 15.5937 33.5629 17.071 32.9379 18.3352C32.32 19.5994 31.4535 20.5831 30.3384 21.2862C29.2305 21.9893 27.9379 22.3409 26.4606 22.3409ZM26.4606 20.0824C27.5827 20.0824 28.506 19.7947 29.2305 19.2195C29.9549 18.6442 30.4911 17.8878 30.8391 16.9503C31.1871 16.0128 31.3612 14.9972 31.3612 13.9034C31.3612 12.8097 31.1871 11.7905 30.8391 10.8459C30.4911 9.90128 29.9549 9.13778 29.2305 8.5554C28.506 7.97301 27.5827 7.68182 26.4606 7.68182C25.3384 7.68182 24.4151 7.97301 23.6907 8.5554C22.9663 9.13778 22.43 9.90128 22.082 10.8459C21.734 11.7905 21.56 12.8097 21.56 13.9034C21.56 14.9972 21.734 16.0128 22.082 16.9503C22.43 17.8878 22.9663 18.6442 23.6907 19.2195C24.4151 19.7947 25.3384 20.0824 26.4606 20.0824ZM48.0257 15.3097V5.63636H50.54V22H48.0257V19.2301H47.8553C47.4718 20.0611 46.8752 20.7678 46.0655 21.3501C45.2559 21.9254 44.2331 22.2131 42.9973 22.2131C41.9746 22.2131 41.0655 21.9893 40.2701 21.5419C39.4746 21.0874 38.8496 20.4055 38.3951 19.4964C37.9405 18.5803 37.7132 17.4261 37.7132 16.0341V5.63636H40.2275V15.8636C40.2275 17.0568 40.5613 18.0085 41.2289 18.7188C41.9036 19.429 42.763 19.7841 43.807 19.7841C44.432 19.7841 45.0676 19.6243 45.714 19.3047C46.3674 18.9851 46.9142 18.495 47.3546 17.8345C47.802 17.174 48.0257 16.3324 48.0257 15.3097ZM62.2614 5.63636V7.76704H53.7812V5.63636H62.2614ZM56.2528 1.71591H58.767V17.3125C58.767 18.0227 58.87 18.5554 59.076 18.9105C59.2891 19.2585 59.5589 19.4929 59.8857 19.6136C60.2195 19.7273 60.571 19.7841 60.9403 19.7841C61.2173 19.7841 61.4446 19.7699 61.6222 19.7415C61.7997 19.706 61.9418 19.6776 62.0483 19.6562L62.5597 21.9148C62.3892 21.9787 62.1513 22.0426 61.8459 22.1065C61.5405 22.1776 61.1534 22.2131 60.6847 22.2131C59.9744 22.2131 59.2784 22.0604 58.5966 21.755C57.9219 21.4496 57.3608 20.9844 56.9134 20.3594C56.473 19.7344 56.2528 18.946 56.2528 17.9943V1.71591ZM72.5153 22.3409C71.038 22.3409 69.7418 21.9893 68.6268 21.2862C67.5188 20.5831 66.6523 19.5994 66.0273 18.3352C65.4094 17.071 65.1005 15.5937 65.1005 13.9034C65.1005 12.1989 65.4094 10.7109 66.0273 9.43963C66.6523 8.16832 67.5188 7.18111 68.6268 6.47798C69.7418 5.77486 71.038 5.4233 72.5153 5.4233C73.9925 5.4233 75.2852 5.77486 76.3931 6.47798C77.5082 7.18111 78.3746 8.16832 78.9925 9.43963C79.6175 10.7109 79.93 12.1989 79.93 13.9034C79.93 15.5937 79.6175 17.071 78.9925 18.3352C78.3746 19.5994 77.5082 20.5831 76.3931 21.2862C75.2852 21.9893 73.9925 22.3409 72.5153 22.3409ZM72.5153 20.0824C73.6374 20.0824 74.5607 19.7947 75.2852 19.2195C76.0096 18.6442 76.5458 17.8878 76.8938 16.9503C77.2418 16.0128 77.4158 14.9972 77.4158 13.9034C77.4158 12.8097 77.2418 11.7905 76.8938 10.8459C76.5458 9.90128 76.0096 9.13778 75.2852 8.5554C74.5607 7.97301 73.6374 7.68182 72.5153 7.68182C71.3931 7.68182 70.4698 7.97301 69.7454 8.5554C69.021 9.13778 68.4847 9.90128 68.1367 10.8459C67.7887 11.7905 67.6147 12.8097 67.6147 13.9034C67.6147 14.9972 67.7887 16.0128 68.1367 16.9503C68.4847 17.8878 69.021 18.6442 69.7454 19.2195C70.4698 19.7947 71.3931 20.0824 72.5153 20.0824ZM86.2821 12.1562V22H83.7679V5.63636H86.1969V8.19318H86.41C86.7935 7.36222 87.3759 6.6946 88.1571 6.19034C88.9384 5.67898 89.9469 5.4233 91.1827 5.4233C92.2907 5.4233 93.2601 5.65057 94.0911 6.10511C94.9221 6.55256 95.5684 7.23438 96.03 8.15057C96.4917 9.05966 96.7225 10.2102 96.7225 11.6023V22H94.2083V11.7727C94.2083 10.4872 93.8745 9.4858 93.2069 8.76847C92.5392 8.04403 91.623 7.68182 90.4583 7.68182C89.6557 7.68182 88.9384 7.85582 88.3063 8.20383C87.6813 8.55185 87.1877 9.05966 86.8255 9.72727C86.4632 10.3949 86.2821 11.2045 86.2821 12.1562Z" fill="black"/>
</svg>
