<svg width="29" height="53" viewBox="0 0 29 53" fill="none" xmlns="http://www.w3.org/2000/svg">
<path d="M29 13.4672C29 20.9049 22.5081 26.9343 14.5 26.9343C6.49187 26.9343 0 20.9049 0 13.4672C0 6.02945 6.49187 0 14.5 0C22.5081 0 29 6.02945 29 13.4672Z" fill="url(#paint0_linear_5_35)"/>
<path d="M1.16 44.292C1.16 36.689 7.13252 30.5255 14.5 30.5255C21.8675 30.5255 27.84 36.689 27.84 44.292C27.84 51.895 21.8675 52.5 14.5 52.5C7.13252 52.5 1.16 51.895 1.16 44.292Z" fill="url(#paint1_linear_5_35)"/>
<defs>
<linearGradient id="paint0_linear_5_35" x1="14.5" y1="0" x2="14.5" y2="52.5" gradientUnits="userSpaceOnUse">
<stop stop-color="#FF7BFD"/>
<stop offset="1" stop-color="#E0E7F7"/>
</linearGradient>
<linearGradient id="paint1_linear_5_35" x1="14.5" y1="0" x2="14.5" y2="52.5" gradientUnits="userSpaceOnUse">
<stop stop-color="#FF7BFD"/>
<stop offset="1" stop-color="#E0E7F7"/>
</linearGradient>
</defs>
</svg>
