<svg width="194" height="100" viewBox="0 0 194 100" fill="none" xmlns="http://www.w3.org/2000/svg">
<path d="M67 0H92V99H67V0Z" fill="url(#paint0_linear_2_26)"/>
<path d="M67 0H126V25H67V0Z" fill="url(#paint1_linear_2_26)"/>
<path d="M67 74H126V99H67V74Z" fill="url(#paint2_linear_2_26)"/>
<path d="M67 37H126V62H67V37Z" fill="url(#paint3_linear_2_26)"/>
<path d="M67.2079 0L89.4022 18.6658L22.1943 98.5782L0 79.9124L67.2079 0Z" fill="url(#paint4_linear_2_26)"/>
<path d="M171.208 1L193.402 19.6658L126.194 99.5782L104 80.9124L171.208 1Z" fill="url(#paint5_linear_2_26)"/>
<defs>
<linearGradient id="paint0_linear_2_26" x1="96.7011" y1="0" x2="96.7011" y2="99.5782" gradientUnits="userSpaceOnUse">
<stop stop-color="#DD00FF"/>
<stop offset="1" stop-color="#9B0DB1"/>
</linearGradient>
<linearGradient id="paint1_linear_2_26" x1="96.7011" y1="0" x2="96.7011" y2="99.5782" gradientUnits="userSpaceOnUse">
<stop stop-color="#DD00FF"/>
<stop offset="1" stop-color="#9B0DB1"/>
</linearGradient>
<linearGradient id="paint2_linear_2_26" x1="96.7011" y1="0" x2="96.7011" y2="99.5782" gradientUnits="userSpaceOnUse">
<stop stop-color="#DD00FF"/>
<stop offset="1" stop-color="#9B0DB1"/>
</linearGradient>
<linearGradient id="paint3_linear_2_26" x1="96.7011" y1="0" x2="96.7011" y2="99.5782" gradientUnits="userSpaceOnUse">
<stop stop-color="#DD00FF"/>
<stop offset="1" stop-color="#9B0DB1"/>
</linearGradient>
<linearGradient id="paint4_linear_2_26" x1="96.7011" y1="0" x2="96.7011" y2="99.5782" gradientUnits="userSpaceOnUse">
<stop stop-color="#DD00FF"/>
<stop offset="1" stop-color="#9B0DB1"/>
</linearGradient>
<linearGradient id="paint5_linear_2_26" x1="96.7011" y1="0" x2="96.7011" y2="99.5782" gradientUnits="userSpaceOnUse">
<stop stop-color="#DD00FF"/>
<stop offset="1" stop-color="#9B0DB1"/>
</linearGradient>
</defs>
</svg>
