<svg width="1240" height="113" viewBox="0 0 1240 113" fill="none" xmlns="http://www.w3.org/2000/svg">
<path d="M0.585227 88V0.72727H35.5284C41.9489 0.72727 47.304 1.67898 51.5938 3.58239C55.8835 5.4858 59.108 8.12784 61.267 11.5085C63.4261 14.8608 64.5057 18.7244 64.5057 23.0994C64.5057 26.5085 63.8239 29.5057 62.4602 32.0909C61.0966 34.6477 59.2216 36.75 56.8352 38.3977C54.4773 40.017 51.7784 41.1676 48.7386 41.8494V42.7017C52.0625 42.8437 55.1733 43.7812 58.071 45.5142C60.9972 47.2472 63.3693 49.6761 65.1875 52.8011C67.0057 55.8977 67.9148 59.5909 67.9148 63.8807C67.9148 68.5114 66.7642 72.6449 64.4631 76.2812C62.1903 79.8892 58.8239 82.7443 54.3636 84.8466C49.9034 86.9489 44.4063 88 37.8722 88H0.585227ZM19.0369 72.9148H34.0795C39.2216 72.9148 42.9716 71.9347 45.3295 69.9744C47.6875 67.9858 48.8665 65.3437 48.8665 62.0483C48.8665 59.6335 48.2841 57.5028 47.1193 55.6562C45.9545 53.8097 44.2926 52.3608 42.1335 51.3097C40.0028 50.2585 37.4602 49.733 34.5057 49.733H19.0369V72.9148ZM19.0369 37.2472H32.7159C35.2443 37.2472 37.4886 36.8068 39.4489 35.9261C41.4375 35.017 43 33.7386 44.1364 32.0909C45.3011 30.4432 45.8835 28.4688 45.8835 26.1676C45.8835 23.0142 44.7614 20.4716 42.517 18.5398C40.3011 16.608 37.1477 15.642 33.0568 15.642H19.0369V37.2472ZM97.7337 0.72727V88H79.5803V0.72727H97.7337ZM130.94 89.2358C126.764 89.2358 123.043 88.5114 119.776 87.0625C116.509 85.5852 113.923 83.4119 112.02 80.5426C110.145 77.6449 109.207 74.0369 109.207 69.7188C109.207 66.0824 109.875 63.0284 111.21 60.5568C112.545 58.0852 114.364 56.0966 116.665 54.5909C118.966 53.0852 121.58 51.9489 124.506 51.1818C127.46 50.4148 130.557 49.875 133.795 49.5625C137.602 49.1648 140.67 48.7955 143 48.4545C145.33 48.0852 147.02 47.5455 148.071 46.8352C149.122 46.125 149.648 45.0739 149.648 43.6818V43.4261C149.648 40.7273 148.795 38.6392 147.091 37.1619C145.415 35.6847 143.028 34.946 139.932 34.946C136.665 34.946 134.065 35.6705 132.134 37.1193C130.202 38.5398 128.923 40.3295 128.298 42.4886L111.509 41.125C112.361 37.1477 114.037 33.7102 116.537 30.8125C119.037 27.8864 122.261 25.642 126.21 24.0795C130.188 22.4886 134.79 21.6932 140.017 21.6932C143.653 21.6932 147.134 22.1193 150.457 22.9716C153.81 23.8239 156.778 25.1449 159.364 26.9347C161.977 28.7244 164.037 31.0256 165.543 33.8381C167.048 36.6222 167.801 39.9602 167.801 43.8523V88H150.585V78.9233H150.074C149.023 80.9688 147.616 82.7727 145.855 84.3352C144.094 85.8693 141.977 87.0767 139.506 87.9574C137.034 88.8097 134.179 89.2358 130.94 89.2358ZM136.139 76.7074C138.81 76.7074 141.168 76.1818 143.213 75.1307C145.259 74.0511 146.864 72.6023 148.028 70.7841C149.193 68.9659 149.776 66.9062 149.776 64.6051V57.6591C149.207 58.0284 148.426 58.3693 147.432 58.6818C146.466 58.9659 145.372 59.2358 144.151 59.4915C142.929 59.7187 141.707 59.9318 140.486 60.1307C139.264 60.3011 138.156 60.4574 137.162 60.5994C135.031 60.9119 133.17 61.4091 131.58 62.0909C129.989 62.7727 128.753 63.696 127.872 64.8608C126.991 65.9972 126.551 67.4176 126.551 69.1222C126.551 71.5938 127.446 73.483 129.236 74.7898C131.054 76.0682 133.355 76.7074 136.139 76.7074ZM182.226 88V0.72727H200.379V33.5398H200.933C201.729 31.7784 202.879 29.9886 204.385 28.1705C205.919 26.3239 207.908 24.7898 210.351 23.5682C212.822 22.3182 215.891 21.6932 219.555 21.6932C224.328 21.6932 228.732 22.9432 232.766 25.4432C236.8 27.9148 240.024 31.6506 242.439 36.6506C244.854 41.6222 246.061 47.858 246.061 55.358C246.061 62.6591 244.882 68.8239 242.524 73.8523C240.195 78.8523 237.013 82.6449 232.979 85.2301C228.973 87.7869 224.484 89.0653 219.513 89.0653C215.99 89.0653 212.993 88.483 210.521 87.3182C208.078 86.1534 206.075 84.6903 204.513 82.929C202.95 81.1392 201.757 79.3352 200.933 77.517H200.124V88H182.226ZM199.996 55.2727C199.996 59.1648 200.536 62.5597 201.615 65.4574C202.695 68.3551 204.257 70.6136 206.303 72.233C208.348 73.8239 210.834 74.6193 213.76 74.6193C216.714 74.6193 219.214 73.8097 221.26 72.1903C223.305 70.5426 224.854 68.2699 225.905 65.3722C226.984 62.446 227.524 59.0795 227.524 55.2727C227.524 51.4943 226.999 48.1705 225.947 45.3011C224.896 42.4318 223.348 40.1875 221.303 38.5682C219.257 36.9489 216.743 36.1392 213.76 36.1392C210.805 36.1392 208.305 36.9205 206.26 38.483C204.243 40.0455 202.695 42.2614 201.615 45.1307C200.536 48 199.996 51.3807 199.996 55.2727ZM276.327 0.72727V88H258.174V0.72727H276.327ZM309.534 89.2358C305.358 89.2358 301.636 88.5114 298.369 87.0625C295.102 85.5852 292.517 83.4119 290.614 80.5426C288.739 77.6449 287.801 74.0369 287.801 69.7188C287.801 66.0824 288.469 63.0284 289.804 60.5568C291.139 58.0852 292.957 56.0966 295.259 54.5909C297.56 53.0852 300.173 51.9489 303.099 51.1818C306.054 50.4148 309.151 49.875 312.389 49.5625C316.196 49.1648 319.264 48.7955 321.594 48.4545C323.923 48.0852 325.614 47.5455 326.665 46.8352C327.716 46.125 328.241 45.0739 328.241 43.6818V43.4261C328.241 40.7273 327.389 38.6392 325.685 37.1619C324.009 35.6847 321.622 34.946 318.526 34.946C315.259 34.946 312.659 35.6705 310.727 37.1193C308.795 38.5398 307.517 40.3295 306.892 42.4886L290.102 41.125C290.955 37.1477 292.631 33.7102 295.131 30.8125C297.631 27.8864 300.855 25.642 304.804 24.0795C308.781 22.4886 313.384 21.6932 318.611 21.6932C322.247 21.6932 325.727 22.1193 329.051 22.9716C332.403 23.8239 335.372 25.1449 337.957 26.9347C340.571 28.7244 342.631 31.0256 344.136 33.8381C345.642 36.6222 346.395 39.9602 346.395 43.8523V88H329.179V78.9233H328.668C327.616 80.9688 326.21 82.7727 324.449 84.3352C322.688 85.8693 320.571 87.0767 318.099 87.9574C315.628 88.8097 312.773 89.2358 309.534 89.2358ZM314.733 76.7074C317.403 76.7074 319.761 76.1818 321.807 75.1307C323.852 74.0511 325.457 72.6023 326.622 70.7841C327.787 68.9659 328.369 66.9062 328.369 64.6051V57.6591C327.801 58.0284 327.02 58.3693 326.026 58.6818C325.06 58.9659 323.966 59.2358 322.744 59.4915C321.523 59.7187 320.301 59.9318 319.08 60.1307C317.858 60.3011 316.75 60.4574 315.756 60.5994C313.625 60.9119 311.764 61.4091 310.173 62.0909C308.582 62.7727 307.347 63.696 306.466 64.8608C305.585 65.9972 305.145 67.4176 305.145 69.1222C305.145 71.5938 306.04 73.483 307.83 74.7898C309.648 76.0682 311.949 76.7074 314.733 76.7074ZM423.067 22.5455V36.1818H383.65V22.5455H423.067ZM392.599 6.86364H410.752V67.8864C410.752 69.5625 411.008 70.8693 411.519 71.8068C412.031 72.7159 412.741 73.3551 413.65 73.7244C414.587 74.0937 415.667 74.2784 416.888 74.2784C417.741 74.2784 418.593 74.2074 419.445 74.0653C420.298 73.8949 420.951 73.767 421.406 73.6818L424.261 87.1903C423.352 87.4744 422.073 87.8011 420.425 88.1705C418.778 88.5682 416.775 88.8097 414.417 88.8949C410.042 89.0653 406.207 88.483 402.911 87.1477C399.644 85.8125 397.102 83.7386 395.283 80.9261C393.465 78.1136 392.57 74.5625 392.599 70.2727V6.86364ZM434.893 88V22.5455H452.492V33.9659H453.174C454.367 29.9034 456.37 26.8352 459.183 24.7614C461.995 22.6591 465.234 21.608 468.898 21.608C469.808 21.608 470.788 21.6648 471.839 21.7784C472.89 21.892 473.813 22.0483 474.609 22.2472V38.3551C473.756 38.0994 472.577 37.8722 471.072 37.6733C469.566 37.4744 468.188 37.375 466.938 37.375C464.268 37.375 461.881 37.9574 459.779 39.1222C457.705 40.2585 456.058 41.8494 454.836 43.8949C453.643 45.9403 453.046 48.2983 453.046 50.9688V88H434.893ZM525.969 60.1307V22.5455H544.122V88H526.693V76.1108H526.011C524.534 79.946 522.077 83.0284 518.639 85.358C515.23 87.6875 511.068 88.8523 506.153 88.8523C501.778 88.8523 497.929 87.858 494.605 85.8693C491.281 83.8807 488.682 81.054 486.807 77.3892C484.96 73.7244 484.023 69.3352 483.994 64.2216V22.5455H502.148V60.983C502.176 64.8466 503.213 67.9006 505.259 70.1449C507.304 72.3892 510.045 73.5114 513.483 73.5114C515.67 73.5114 517.716 73.0142 519.619 72.0199C521.523 70.9972 523.057 69.4915 524.222 67.5028C525.415 65.5142 525.997 63.0568 525.969 60.1307ZM588.217 89.2784C581.512 89.2784 575.745 87.858 570.915 85.017C566.114 82.1477 562.421 78.1705 559.836 73.0852C557.279 68 556.001 62.1477 556.001 55.5284C556.001 48.8239 557.293 42.9432 559.879 37.8864C562.492 32.8011 566.2 28.8381 571.001 25.9972C575.802 23.1278 581.512 21.6932 588.131 21.6932C593.842 21.6932 598.842 22.7301 603.131 24.804C607.421 26.8778 610.816 29.7898 613.316 33.5398C615.816 37.2898 617.194 41.6932 617.45 46.75H600.319C599.836 43.483 598.558 40.8551 596.484 38.8665C594.438 36.8494 591.754 35.8409 588.43 35.8409C585.617 35.8409 583.16 36.608 581.058 38.142C578.984 39.6477 577.364 41.8494 576.2 44.7472C575.035 47.6449 574.452 51.1534 574.452 55.2727C574.452 59.4489 575.021 63 576.157 65.9261C577.322 68.8523 578.955 71.0824 581.058 72.6165C583.16 74.1506 585.617 74.9176 588.43 74.9176C590.504 74.9176 592.364 74.4915 594.012 73.6392C595.688 72.7869 597.066 71.5511 598.146 69.9318C599.254 68.2841 599.978 66.3097 600.319 64.0085H617.45C617.165 69.0085 615.802 73.4119 613.359 77.2188C610.944 80.9972 607.606 83.9517 603.344 86.0824C599.083 88.2131 594.04 89.2784 588.217 89.2784Z" fill="black"/>
<path d="M680.965 89.0653C675.994 89.0653 671.491 87.7869 667.457 85.2301C663.451 82.6449 660.269 78.8523 657.911 73.8523C655.582 68.8239 654.417 62.6591 654.417 55.358C654.417 47.858 655.624 41.6222 658.039 36.6506C660.454 31.6506 663.664 27.9148 667.67 25.4432C671.704 22.9432 676.121 21.6932 680.923 21.6932C684.587 21.6932 687.641 22.3182 690.085 23.5682C692.556 24.7898 694.545 26.3239 696.05 28.1705C697.585 29.9886 698.749 31.7784 699.545 33.5398H700.099V0.72727H718.21V88H700.312V77.517H699.545C698.692 79.3352 697.485 81.1392 695.923 82.929C694.388 84.6903 692.386 86.1534 689.914 87.3182C687.471 88.483 684.488 89.0653 680.965 89.0653ZM686.718 74.6193C689.644 74.6193 692.116 73.8239 694.133 72.233C696.178 70.6136 697.741 68.3551 698.82 65.4574C699.928 62.5597 700.482 59.1648 700.482 55.2727C700.482 51.3807 699.942 48 698.863 45.1307C697.783 42.2614 696.221 40.0455 694.175 38.483C692.13 36.9205 689.644 36.1392 686.718 36.1392C683.735 36.1392 681.221 36.9489 679.175 38.5682C677.13 40.1875 675.582 42.4318 674.531 45.3011C673.479 48.1705 672.954 51.4943 672.954 55.2727C672.954 59.0795 673.479 62.446 674.531 65.3722C675.61 68.2699 677.158 70.5426 679.175 72.1903C681.221 73.8097 683.735 74.6193 686.718 74.6193ZM748.348 0.72727V9.93182C748.348 12.5455 747.837 15.2159 746.814 17.9432C745.82 20.642 744.484 23.1989 742.808 25.6136C741.132 28 739.3 30.0312 737.311 31.7074L729.3 26.9773C730.72 24.733 731.97 22.2472 733.05 19.5199C734.158 16.7926 734.712 13.625 734.712 10.017V0.72727H748.348ZM782.769 89.2784C776.036 89.2784 770.241 87.9148 765.383 85.1875C760.553 82.4318 756.832 78.5398 754.218 73.5114C751.604 68.4545 750.298 62.4744 750.298 55.571C750.298 48.8381 751.604 42.929 754.218 37.8438C756.832 32.7585 760.511 28.7955 765.255 25.9545C770.028 23.1136 775.624 21.6932 782.045 21.6932C786.363 21.6932 790.383 22.3892 794.104 23.7812C797.854 25.1449 801.121 27.2045 803.906 29.9602C806.718 32.7159 808.906 36.1818 810.468 40.358C812.031 44.5057 812.812 49.3636 812.812 54.9318V59.9176H757.542V48.6676H795.724C795.724 46.054 795.156 43.7386 794.019 41.7216C792.883 39.7045 791.306 38.1278 789.289 36.9915C787.3 35.8267 784.985 35.2443 782.343 35.2443C779.587 35.2443 777.144 35.8835 775.013 37.1619C772.911 38.4119 771.263 40.1023 770.07 42.233C768.877 44.3352 768.266 46.679 768.238 49.2642V59.9602C768.238 63.1989 768.835 65.9972 770.028 68.3551C771.249 70.7131 772.968 72.5312 775.184 73.8097C777.4 75.0881 780.028 75.7273 783.067 75.7273C785.085 75.7273 786.931 75.4432 788.607 74.875C790.283 74.3068 791.718 73.4545 792.911 72.3182C794.104 71.1818 795.013 69.7898 795.638 68.142L812.428 69.25C811.576 73.2841 809.829 76.8068 807.187 79.8182C804.573 82.8011 801.192 85.1307 797.045 86.8068C792.925 88.4545 788.167 89.2784 782.769 89.2784ZM838.657 22.5455L850.674 45.429L862.989 22.5455H881.612L862.648 55.2727L882.123 88H863.586L850.674 65.3722L837.975 88H819.225L838.657 55.2727L819.907 22.5455H838.657ZM919.879 89.2784C913.146 89.2784 907.35 87.9148 902.492 85.1875C897.663 82.4318 893.941 78.5398 891.327 73.5114C888.714 68.4545 887.407 62.4744 887.407 55.571C887.407 48.8381 888.714 42.929 891.327 37.8438C893.941 32.7585 897.62 28.7955 902.364 25.9545C907.137 23.1136 912.734 21.6932 919.154 21.6932C923.472 21.6932 927.492 22.3892 931.214 23.7812C934.964 25.1449 938.231 27.2045 941.015 29.9602C943.827 32.7159 946.015 36.1818 947.577 40.358C949.14 44.5057 949.921 49.3636 949.921 54.9318V59.9176H894.651V48.6676H932.833C932.833 46.054 932.265 43.7386 931.129 41.7216C929.992 39.7045 928.415 38.1278 926.398 36.9915C924.41 35.8267 922.094 35.2443 919.452 35.2443C916.697 35.2443 914.254 35.8835 912.123 37.1619C910.021 38.4119 908.373 40.1023 907.18 42.233C905.987 44.3352 905.376 46.679 905.347 49.2642V59.9602C905.347 63.1989 905.944 65.9972 907.137 68.3551C908.359 70.7131 910.077 72.5312 912.293 73.8097C914.509 75.0881 917.137 75.7273 920.177 75.7273C922.194 75.7273 924.04 75.4432 925.717 74.875C927.393 74.3068 928.827 73.4545 930.021 72.3182C931.214 71.1818 932.123 69.7898 932.748 68.142L949.538 69.25C948.685 73.2841 946.938 76.8068 944.296 79.8182C941.683 82.8011 938.302 85.1307 934.154 86.8068C930.035 88.4545 925.276 89.2784 919.879 89.2784ZM961.768 88V22.5455H979.069V34.0938H979.836C981.2 30.2585 983.472 27.233 986.654 25.017C989.836 22.8011 993.643 21.6932 998.075 21.6932C1002.56 21.6932 1006.38 22.8153 1009.54 25.0597C1012.69 27.2756 1014.79 30.2869 1015.84 34.0938H1016.53C1017.86 30.3438 1020.28 27.3466 1023.77 25.1023C1027.29 22.8295 1031.46 21.6932 1036.26 21.6932C1042.36 21.6932 1047.32 23.6392 1051.13 27.5312C1054.96 31.3949 1056.88 36.8778 1056.88 43.9801V88H1038.77V47.5597C1038.77 43.9233 1037.8 41.196 1035.87 39.3778C1033.94 37.5597 1031.53 36.6506 1028.63 36.6506C1025.33 36.6506 1022.76 37.7017 1020.92 39.804C1019.07 41.8778 1018.15 44.6193 1018.15 48.0284V88H1000.55V47.1761C1000.55 43.9659 999.623 41.4091 997.776 39.5057C995.958 37.6023 993.558 36.6506 990.575 36.6506C988.558 36.6506 986.739 37.1619 985.12 38.1847C983.529 39.179 982.265 40.5852 981.327 42.4034C980.39 44.1932 979.921 46.2955 979.921 48.7102V88H961.768ZM1071.22 112.545V22.5455H1089.12V33.5398H1089.93C1090.72 31.7784 1091.87 29.9886 1093.38 28.1705C1094.91 26.3239 1096.9 24.7898 1099.35 23.5682C1101.82 22.3182 1104.89 21.6932 1108.55 21.6932C1113.32 21.6932 1117.73 22.9432 1121.76 25.4432C1125.79 27.9148 1129.02 31.6506 1131.43 36.6506C1133.85 41.6222 1135.06 47.858 1135.06 55.358C1135.06 62.6591 1133.88 68.8239 1131.52 73.8523C1129.19 78.8523 1126.01 82.6449 1121.97 85.2301C1117.97 87.7869 1113.48 89.0653 1108.51 89.0653C1104.99 89.0653 1101.99 88.483 1099.52 87.3182C1097.07 86.1534 1095.07 84.6903 1093.51 82.929C1091.95 81.1392 1090.75 79.3352 1089.93 77.517H1089.37V112.545H1071.22ZM1088.99 55.2727C1088.99 59.1648 1089.53 62.5597 1090.61 65.4574C1091.69 68.3551 1093.25 70.6136 1095.3 72.233C1097.34 73.8239 1099.83 74.6193 1102.75 74.6193C1105.71 74.6193 1108.21 73.8097 1110.25 72.1903C1112.3 70.5426 1113.85 68.2699 1114.9 65.3722C1115.98 62.446 1116.52 59.0795 1116.52 55.2727C1116.52 51.4943 1115.99 48.1705 1114.94 45.3011C1113.89 42.4318 1112.34 40.1875 1110.3 38.5682C1108.25 36.9489 1105.74 36.1392 1102.75 36.1392C1099.8 36.1392 1097.3 36.9205 1095.25 38.483C1093.24 40.0455 1091.69 42.2614 1090.61 45.1307C1089.53 48 1088.99 51.3807 1088.99 55.2727ZM1165.31 0.72727V88H1147.16V0.72727H1165.31ZM1209.68 89.2784C1202.95 89.2784 1197.15 87.9148 1192.3 85.1875C1187.47 82.4318 1183.75 78.5398 1181.13 73.5114C1178.52 68.4545 1177.21 62.4744 1177.21 55.571C1177.21 48.8381 1178.52 42.929 1181.13 37.8438C1183.75 32.7585 1187.42 28.7955 1192.17 25.9545C1196.94 23.1136 1202.54 21.6932 1208.96 21.6932C1213.28 21.6932 1217.3 22.3892 1221.02 23.7812C1224.77 25.1449 1228.04 27.2045 1230.82 29.9602C1233.63 32.7159 1235.82 36.1818 1237.38 40.358C1238.94 44.5057 1239.73 49.3636 1239.73 54.9318V59.9176H1184.46V48.6676H1222.64C1222.64 46.054 1222.07 43.7386 1220.93 41.7216C1219.8 39.7045 1218.22 38.1278 1216.2 36.9915C1214.21 35.8267 1211.9 35.2443 1209.26 35.2443C1206.5 35.2443 1204.06 35.8835 1201.93 37.1619C1199.83 38.4119 1198.18 40.1023 1196.98 42.233C1195.79 44.3352 1195.18 46.679 1195.15 49.2642V59.9602C1195.15 63.1989 1195.75 65.9972 1196.94 68.3551C1198.16 70.7131 1199.88 72.5312 1202.1 73.8097C1204.31 75.0881 1206.94 75.7273 1209.98 75.7273C1212 75.7273 1213.85 75.4432 1215.52 74.875C1217.2 74.3068 1218.63 73.4545 1219.83 72.3182C1221.02 71.1818 1221.93 69.7898 1222.55 68.142L1239.34 69.25C1238.49 73.2841 1236.74 76.8068 1234.1 79.8182C1231.49 82.8011 1228.11 85.1307 1223.96 86.8068C1219.84 88.4545 1215.08 89.2784 1209.68 89.2784Z" fill="url(#paint0_linear_3_14)"/>
<defs>
<linearGradient id="paint0_linear_3_14" x1="-7" y1="44.5" x2="1245" y2="44.5" gradientUnits="userSpaceOnUse">
<stop stop-color="#DD00FF"/>
<stop offset="0.735" stop-color="#9B0DB1"/>
</linearGradient>
</defs>
</svg>
